<?xml version="1.0" encoding="UTF-8"?>
<svg xmlns="http://www.w3.org/2000/svg" width="40px" height="40px" viewBox="0 0 40 40" version="1.1">
<g id="surface1">
<path style=" stroke:none;fill-rule:nonzero;fill:rgb(0%,0%,0%);fill-opacity:1;" d="M 10.957031 16.882812 C 10.894531 17.046875 10.933594 17.253906 10.757812 17.292969 C 10.558594 17.335938 10.496094 17.132812 10.40625 17.003906 C 10.320312 16.878906 10.230469 16.753906 10.171875 16.617188 C 10.007812 16.242188 9.722656 16.140625 9.339844 16.171875 C 9.152344 16.191406 9.027344 16.234375 8.984375 16.433594 C 8.941406 16.632812 8.886719 16.832031 8.824219 17.027344 C 8.785156 17.164062 8.804688 17.367188 8.625 17.398438 C 8.425781 17.429688 8.359375 17.230469 8.285156 17.09375 C 8.136719 16.8125 7.988281 16.535156 7.882812 16.238281 C 7.765625 15.910156 7.511719 15.871094 7.230469 15.851562 C 6.9375 15.832031 6.933594 16.078125 6.859375 16.261719 C 6.734375 16.554688 6.75 16.90625 6.503906 17.1875 C 6.203125 16.980469 6.109375 16.65625 5.957031 16.378906 C 5.851562 16.1875 5.777344 15.976562 5.679688 15.78125 C 5.5625 15.546875 5.335938 15.53125 5.117188 15.527344 C 4.890625 15.523438 4.878906 15.722656 4.828125 15.871094 C 4.726562 16.175781 4.71875 16.515625 4.53125 16.847656 C 4.183594 16.617188 4.082031 16.265625 3.925781 15.964844 C 3.835938 15.796875 3.765625 15.613281 3.695312 15.4375 C 3.613281 15.242188 3.460938 15.1875 3.265625 15.191406 C 3.039062 15.195312 3.027344 15.363281 2.984375 15.527344 C 2.898438 15.863281 2.914062 16.226562 2.761719 16.542969 C 2.535156 16.542969 2.472656 16.390625 2.402344 16.265625 C 2.214844 15.949219 2.027344 15.625 1.867188 15.292969 C 1.753906 15.058594 1.621094 14.878906 1.339844 14.835938 C 1.066406 14.800781 0.957031 14.640625 0.960938 14.351562 C 0.972656 13.117188 0.972656 11.882812 0.964844 10.648438 C 0.960938 10.402344 1.066406 10.238281 1.253906 10.097656 C 2.273438 9.332031 3.289062 8.5625 4.300781 7.785156 C 4.527344 7.613281 4.789062 7.550781 5.058594 7.484375 C 8.359375 6.691406 11.667969 5.933594 14.957031 5.089844 C 16.777344 4.625 18.492188 3.835938 20.246094 3.164062 C 20.683594 2.996094 21.058594 2.984375 21.503906 3.144531 C 23.230469 3.761719 24.964844 4.367188 26.714844 4.925781 C 27.261719 5.101562 27.65625 5.457031 28.109375 5.757812 C 29.066406 6.398438 30.027344 7.035156 31.011719 7.628906 C 31.496094 7.917969 31.792969 8.285156 32.007812 8.8125 C 32.867188 10.960938 33.78125 13.089844 34.667969 15.226562 C 34.808594 15.566406 35 15.84375 35.277344 16.085938 C 36.574219 17.230469 37.855469 18.386719 39.144531 19.539062 C 39.511719 19.863281 39.515625 19.914062 39.191406 20.300781 C 35.398438 24.863281 31.601562 29.425781 27.808594 33.988281 C 27.132812 34.800781 26.460938 35.613281 25.785156 36.425781 C 25.691406 36.535156 25.628906 36.6875 25.46875 36.722656 C 25.332031 36.691406 25.3125 36.570312 25.269531 36.476562 C 24.230469 34.144531 23.195312 31.816406 22.160156 29.488281 C 22.0625 29.273438 21.933594 29.085938 21.753906 28.929688 C 20.226562 27.59375 18.695312 26.257812 17.183594 24.90625 C 16.898438 24.648438 16.632812 24.589844 16.261719 24.675781 C 13.183594 25.402344 10.101562 26.109375 7.023438 26.828125 C 6.789062 26.882812 6.597656 26.847656 6.398438 26.730469 C 5.808594 26.382812 5.222656 26.027344 4.617188 25.699219 C 4.25 25.5 3.980469 25.246094 3.867188 24.832031 C 3.8125 24.648438 3.734375 24.472656 3.644531 24.300781 C 3.476562 23.980469 3.359375 23.695312 3.867188 23.570312 C 4.042969 23.53125 4.066406 23.339844 4.105469 23.171875 C 4.199219 22.769531 4.21875 22.339844 4.488281 21.964844 C 4.804688 22.191406 4.851562 22.539062 5.011719 22.8125 C 5.09375 22.957031 5.117188 23.179688 5.359375 23.15625 C 5.601562 23.132812 5.632812 22.941406 5.683594 22.746094 C 5.78125 22.375 5.78125 21.964844 6.023438 21.613281 C 6.378906 21.777344 6.433594 22.113281 6.585938 22.375 C 6.679688 22.539062 6.730469 22.738281 6.988281 22.714844 C 7.257812 22.695312 7.300781 22.5 7.351562 22.292969 C 7.445312 21.921875 7.425781 21.511719 7.675781 21.15625 C 8.015625 21.359375 8.097656 21.695312 8.273438 21.964844 C 8.367188 22.109375 8.421875 22.296875 8.667969 22.234375 C 8.875 22.175781 9 22.070312 9.035156 21.847656 C 9.070312 21.601562 9.128906 21.363281 9.1875 21.125 C 9.261719 20.820312 9.417969 20.800781 9.605469 21.027344 C 9.726562 21.175781 9.820312 21.34375 9.933594 21.5 C 10.023438 21.632812 10.085938 21.804688 10.308594 21.742188 C 10.519531 21.679688 10.730469 21.636719 10.808594 21.375 C 10.988281 20.777344 10.847656 20.570312 10.242188 20.453125 C 9.632812 20.335938 9.003906 20.265625 8.445312 19.960938 C 8.503906 19.734375 8.683594 19.730469 8.808594 19.683594 C 10.828125 18.980469 12.707031 17.996094 14.519531 16.878906 C 15.308594 16.394531 16.203125 16.226562 17.085938 16.042969 C 17.476562 15.960938 17.625 15.808594 17.613281 15.390625 C 17.582031 14.503906 17.601562 14.503906 16.738281 14.683594 C 16.28125 14.78125 15.832031 14.898438 15.371094 14.976562 C 15.011719 15.035156 14.820312 15.203125 14.746094 15.570312 C 14.707031 15.78125 14.734375 16.105469 14.453125 16.148438 C 14.210938 16.183594 14.136719 15.882812 14.011719 15.714844 C 13.863281 15.507812 13.753906 15.34375 13.421875 15.40625 C 13.085938 15.472656 13.015625 15.671875 12.960938 15.9375 C 12.917969 16.152344 12.886719 16.371094 12.824219 16.578125 C 12.742188 16.878906 12.578125 16.886719 12.402344 16.652344 C 12.261719 16.46875 12.125 16.277344 12.011719 16.074219 C 11.875 15.835938 11.675781 15.832031 11.445312 15.855469 C 11.207031 15.882812 11.132812 16.046875 11.089844 16.246094 C 11.046875 16.445312 11.003906 16.648438 10.957031 16.882812 M 23.578125 4.644531 C 22.929688 4.425781 22.265625 4.246094 21.636719 3.976562 C 21.085938 3.742188 20.605469 3.808594 20.066406 4.019531 C 18.410156 4.675781 16.777344 5.402344 15.050781 5.839844 C 11.785156 6.664062 8.503906 7.414062 5.230469 8.195312 C 5.027344 8.242188 4.839844 8.308594 4.671875 8.4375 C 3.785156 9.109375 2.902344 9.777344 2.015625 10.445312 C 1.773438 10.625 1.675781 10.847656 1.679688 11.148438 C 1.691406 12.011719 1.691406 12.875 1.675781 13.738281 C 1.667969 14.0625 1.773438 14.195312 2.097656 14.253906 C 4.066406 14.601562 6.035156 14.929688 8.011719 15.222656 C 8.796875 15.339844 9.574219 15.507812 10.375 15.328125 C 12.441406 14.859375 14.511719 14.398438 16.585938 13.953125 C 17.089844 13.84375 17.585938 13.625 18.113281 13.691406 C 18.859375 13.785156 19.601562 13.914062 20.34375 14.03125 C 23.019531 14.449219 25.695312 14.871094 28.371094 15.285156 C 28.746094 15.34375 28.824219 15.261719 28.75 14.894531 C 28.175781 12.007812 27.597656 9.125 27.03125 6.242188 C 26.96875 5.90625 26.816406 5.722656 26.480469 5.621094 C 25.527344 5.320312 24.585938 4.984375 23.578125 4.644531 M 27.746094 20.296875 C 27.683594 20.773438 27.621094 21.246094 27.558594 21.722656 C 27.296875 23.757812 27.035156 25.789062 26.777344 27.828125 C 26.5625 29.550781 26.351562 31.273438 26.144531 33 C 26.066406 33.644531 26.003906 34.292969 25.933594 34.9375 C 26.1875 34.765625 26.359375 34.558594 26.53125 34.351562 C 30.429688 29.660156 34.324219 24.96875 38.226562 20.28125 C 38.4375 20.027344 38.414062 19.878906 38.179688 19.675781 C 37.019531 18.648438 35.878906 17.601562 34.714844 16.578125 C 34.410156 16.308594 34.1875 16.003906 34.035156 15.621094 C 33.179688 13.542969 32.292969 11.480469 31.457031 9.394531 C 31.21875 8.800781 30.878906 8.378906 30.328125 8.0625 C 29.5 7.585938 28.710938 7.046875 27.878906 6.515625 C 27.875 6.601562 27.863281 6.644531 27.867188 6.679688 C 28.4375 9.535156 29 12.394531 29.589844 15.246094 C 29.660156 15.597656 29.609375 15.851562 29.367188 16.105469 C 29.078125 16.414062 28.808594 16.742188 28.539062 17.074219 C 28.332031 17.324219 28.070312 17.558594 28.023438 17.898438 C 27.921875 18.671875 27.84375 19.449219 27.746094 20.296875 M 4.828125 24.949219 C 5.386719 25.269531 5.945312 25.589844 6.5 25.917969 C 6.734375 26.058594 6.960938 26.089844 7.238281 26.027344 C 12.34375 24.84375 17.449219 23.671875 22.558594 22.507812 C 22.859375 22.4375 23.078125 22.300781 23.273438 22.074219 C 24.726562 20.375 26.183594 18.683594 27.636719 16.988281 C 27.882812 16.703125 28.109375 16.398438 28.367188 16.078125 C 28.167969 15.992188 28.023438 16.035156 27.878906 16.0625 C 24.765625 16.597656 21.667969 17.214844 18.566406 17.832031 C 18.324219 17.878906 18.09375 17.953125 17.882812 18.097656 C 16.164062 19.269531 14.4375 20.4375 12.714844 21.605469 C 12.453125 21.78125 12.179688 21.929688 11.875 22.027344 C 9.617188 22.742188 7.34375 23.40625 5.054688 24.015625 C 4.386719 24.191406 4.375 24.210938 4.703125 24.816406 C 4.722656 24.851562 4.753906 24.878906 4.828125 24.949219 M 23.738281 31.222656 C 24.214844 32.273438 24.691406 33.324219 25.210938 34.476562 C 25.871094 29.175781 26.515625 24.003906 27.160156 18.835938 C 26.976562 18.898438 26.890625 18.984375 26.8125 19.078125 C 25.804688 20.253906 24.796875 21.429688 23.800781 22.617188 C 23.535156 22.9375 23.222656 23.125 22.808594 23.210938 C 21.671875 23.453125 20.542969 23.730469 19.40625 23.996094 C 18.867188 24.121094 18.332031 24.25 17.796875 24.378906 C 17.820312 24.558594 17.933594 24.601562 18.011719 24.671875 C 19.382812 25.878906 20.746094 27.089844 22.125 28.28125 C 22.476562 28.585938 22.734375 28.933594 22.914062 29.363281 C 23.164062 29.96875 23.449219 30.566406 23.738281 31.222656 M 25.414062 15.59375 C 23.085938 15.21875 20.761719 14.84375 18.414062 14.464844 C 18.414062 15.386719 18.414062 16.21875 18.414062 17.074219 C 18.582031 17.054688 18.703125 17.046875 18.824219 17.023438 C 20.449219 16.707031 22.070312 16.390625 23.691406 16.070312 C 24.269531 15.957031 24.847656 15.847656 25.421875 15.730469 C 25.460938 15.71875 25.695312 15.726562 25.414062 15.59375 M 16.46875 18.171875 C 16.71875 18.003906 16.957031 17.816406 17.21875 17.667969 C 17.613281 17.445312 17.675781 17.132812 17.554688 16.730469 C 17.347656 16.695312 17.164062 16.753906 16.980469 16.789062 C 16.011719 16.960938 15.132812 17.351562 14.296875 17.867188 C 13.148438 18.578125 11.957031 19.21875 10.703125 19.761719 C 11.113281 19.839844 11.515625 19.894531 11.917969 19.910156 C 12.511719 19.929688 12.511719 19.917969 12.753906 19.394531 C 13.027344 19.425781 13.140625 19.667969 13.308594 19.835938 C 13.417969 19.941406 13.503906 20.132812 13.710938 20.015625 C 13.894531 19.910156 14.128906 19.84375 14.128906 19.566406 C 14.132812 19.429688 14.121094 19.289062 14.136719 19.15625 C 14.148438 19 14.054688 18.792969 14.222656 18.699219 C 14.410156 18.59375 14.5625 18.753906 14.6875 18.871094 C 14.945312 19.117188 15.171875 19.09375 15.441406 18.882812 C 15.753906 18.636719 16.09375 18.429688 16.46875 18.171875 M 12.511719 20.757812 C 12.304688 20.589844 12 20.570312 11.601562 20.699219 C 11.800781 21.195312 11.890625 21.226562 12.292969 20.953125 C 12.363281 20.910156 12.421875 20.855469 12.511719 20.757812 Z M 12.511719 20.757812 "/>
<path style=" stroke:none;fill-rule:nonzero;fill:rgb(0%,0%,0%);fill-opacity:1;" d="M 22 5.589844 C 23.023438 6.042969 24.019531 6.484375 25.015625 6.925781 C 25.003906 6.96875 24.988281 7.015625 24.976562 7.0625 C 24.40625 7.042969 23.832031 7.128906 23.273438 6.902344 C 22.5 6.582031 21.722656 6.273438 20.957031 5.941406 C 20.734375 5.847656 20.558594 5.851562 20.339844 5.945312 C 19.015625 6.511719 17.691406 7.074219 16.359375 7.613281 C 16.078125 7.726562 16.015625 7.84375 16.105469 8.128906 C 16.472656 9.277344 16.804688 10.4375 17.167969 11.585938 C 17.28125 11.933594 17.203125 12.117188 16.851562 12.234375 C 16.09375 12.480469 15.351562 12.757812 14.601562 13.019531 C 14.515625 13.050781 14.421875 13.101562 14.304688 13.019531 C 14.398438 12.800781 14.625 12.742188 14.792969 12.625 C 15.226562 12.335938 15.667969 12.058594 16.113281 11.789062 C 16.335938 11.652344 16.390625 11.484375 16.308594 11.234375 C 15.996094 10.269531 15.6875 9.304688 15.390625 8.335938 C 15.304688 8.050781 15.179688 7.945312 14.859375 8.011719 C 13.679688 8.261719 12.496094 8.480469 11.3125 8.707031 C 10.925781 8.78125 10.679688 9.078125 10.390625 9.300781 C 9.894531 9.691406 9.410156 10.09375 8.921875 10.492188 C 8.773438 10.609375 8.632812 10.710938 8.476562 10.496094 C 8.339844 10.3125 8.328125 10.167969 8.519531 10.003906 C 9.125 9.46875 9.722656 8.921875 10.316406 8.375 C 10.789062 7.949219 11.410156 7.960938 11.972656 7.832031 C 13.027344 7.59375 14.09375 7.414062 15.15625 7.21875 C 15.757812 7.109375 16.304688 6.859375 16.859375 6.621094 C 18.003906 6.128906 19.152344 5.636719 20.292969 5.136719 C 20.523438 5.035156 20.726562 5.011719 20.957031 5.125 C 21.292969 5.285156 21.632812 5.425781 22 5.589844 Z M 22 5.589844 "/>
<path style=" stroke:none;fill-rule:nonzero;fill:rgb(0%,0%,0%);fill-opacity:1;" d="M 21.664062 9.566406 C 21.613281 9.886719 21.417969 10.019531 21.175781 10.160156 C 20.34375 10.636719 19.558594 10.691406 18.679688 10.207031 C 18.175781 9.929688 17.78125 9.691406 17.695312 9.082031 C 17.644531 8.746094 17.523438 8.421875 17.425781 8.09375 C 17.355469 7.84375 17.425781 7.679688 17.667969 7.558594 C 18.363281 7.207031 19.054688 6.847656 19.742188 6.472656 C 19.988281 6.34375 20.199219 6.339844 20.4375 6.484375 C 20.917969 6.773438 21.402344 7.058594 21.890625 7.332031 C 22.136719 7.46875 22.203125 7.644531 22.121094 7.914062 C 21.960938 8.449219 21.820312 8.992188 21.664062 9.566406 M 19.695312 7.339844 C 19.296875 7.546875 18.894531 7.75 18.496094 7.960938 C 18.351562 8.039062 18.210938 8.117188 18.261719 8.335938 C 18.398438 8.910156 18.492188 9.507812 19.230469 9.636719 C 19.335938 9.652344 19.429688 9.726562 19.53125 9.765625 C 19.875 9.902344 20.726562 9.707031 20.90625 9.390625 C 21.152344 8.949219 21.300781 8.4375 21.308594 7.949219 C 21.3125 7.632812 20.824219 7.621094 20.582031 7.4375 C 20.527344 7.398438 20.457031 7.375 20.40625 7.332031 C 20.191406 7.136719 19.972656 7.140625 19.695312 7.339844 Z M 19.695312 7.339844 "/>
<path style=" stroke:none;fill-rule:nonzero;fill:rgb(0%,0%,0%);fill-opacity:1;" d="M 18.800781 11.265625 C 18.484375 11.011719 18.078125 10.890625 17.925781 10.503906 C 18.089844 10.332031 18.210938 10.441406 18.328125 10.488281 C 18.820312 10.691406 19.3125 10.894531 19.800781 11.109375 C 20.015625 11.203125 20.210938 11.226562 20.433594 11.125 C 20.894531 10.917969 21.359375 10.722656 21.828125 10.535156 C 22.03125 10.453125 22.117188 10.300781 22.179688 10.113281 C 22.386719 9.476562 22.597656 8.839844 22.820312 8.207031 C 22.886719 8.019531 22.945312 7.8125 23.222656 7.820312 C 23.5625 7.832031 23.667969 7.957031 23.5625 8.273438 C 23.304688 9.054688 23.042969 9.832031 22.789062 10.609375 C 22.722656 10.816406 22.617188 10.96875 22.410156 11.058594 C 21.707031 11.367188 21.007812 11.675781 20.3125 11.996094 C 20.105469 12.09375 19.945312 12.039062 19.777344 11.925781 C 19.460938 11.710938 19.144531 11.496094 18.800781 11.265625 Z M 18.800781 11.265625 "/>
<path style=" stroke:none;fill-rule:nonzero;fill:rgb(0%,0%,0%);fill-opacity:1;" d="M 3.570312 11.796875 C 3.617188 11.117188 3.878906 10.625 4.507812 10.355469 C 4.820312 10.222656 5.054688 9.945312 5.378906 9.832031 C 5.691406 10.265625 5.671875 10.421875 5.296875 10.722656 C 4.804688 11.117188 4.320312 11.523438 3.832031 11.917969 C 3.710938 12.015625 3.554688 12.136719 3.570312 11.796875 Z M 3.570312 11.796875 "/>
<path style=" stroke:none;fill-rule:nonzero;fill:rgb(0%,0%,0%);fill-opacity:1;" d="M 19.886719 9.269531 C 19.613281 9.332031 19.484375 9.207031 19.445312 8.992188 C 19.390625 8.695312 19.394531 8.390625 19.4375 8.089844 C 19.457031 7.949219 19.542969 7.839844 19.707031 7.824219 C 19.855469 7.808594 19.976562 7.847656 20.058594 7.980469 C 20.191406 8.207031 20.097656 9.042969 19.886719 9.269531 Z M 19.886719 9.269531 "/>
</g>
</svg>
