<?xml version="1.0" encoding="UTF-8"?>
<svg xmlns="http://www.w3.org/2000/svg" width="40px" height="40px" viewBox="0 0 40 40" version="1.1">
<g id="surface1">
<path style=" stroke:none;fill-rule:nonzero;fill:rgb(100%,100%,100%);fill-opacity:1;" d="M 11.667969 17.304688 C 11.609375 17.460938 11.648438 17.652344 11.484375 17.6875 C 11.296875 17.726562 11.238281 17.539062 11.15625 17.417969 C 11.074219 17.304688 10.992188 17.1875 10.9375 17.058594 C 10.785156 16.710938 10.523438 16.617188 10.167969 16.648438 C 9.992188 16.664062 9.875 16.703125 9.835938 16.890625 C 9.796875 17.074219 9.746094 17.261719 9.6875 17.441406 C 9.648438 17.570312 9.667969 17.757812 9.5 17.785156 C 9.316406 17.816406 9.253906 17.628906 9.1875 17.5 C 9.046875 17.242188 8.910156 16.980469 8.8125 16.707031 C 8.703125 16.402344 8.46875 16.367188 8.207031 16.347656 C 7.933594 16.332031 7.929688 16.558594 7.859375 16.726562 C 7.746094 17.003906 7.761719 17.328125 7.53125 17.589844 C 7.253906 17.398438 7.167969 17.097656 7.023438 16.835938 C 6.925781 16.660156 6.855469 16.464844 6.765625 16.285156 C 6.660156 16.066406 6.449219 16.050781 6.242188 16.046875 C 6.035156 16.046875 6.023438 16.230469 5.976562 16.367188 C 5.878906 16.652344 5.871094 16.964844 5.699219 17.273438 C 5.378906 17.058594 5.285156 16.734375 5.136719 16.453125 C 5.050781 16.296875 4.988281 16.128906 4.921875 15.964844 C 4.847656 15.78125 4.703125 15.730469 4.523438 15.734375 C 4.3125 15.742188 4.300781 15.894531 4.261719 16.046875 C 4.183594 16.359375 4.195312 16.699219 4.054688 16.992188 C 3.847656 16.992188 3.789062 16.847656 3.71875 16.734375 C 3.546875 16.4375 3.375 16.140625 3.226562 15.832031 C 3.121094 15.609375 2.996094 15.445312 2.734375 15.40625 C 2.480469 15.371094 2.378906 15.222656 2.382812 14.957031 C 2.394531 13.808594 2.394531 12.664062 2.386719 11.515625 C 2.386719 11.285156 2.480469 11.136719 2.65625 11.003906 C 3.601562 10.292969 4.546875 9.578125 5.484375 8.859375 C 5.695312 8.699219 5.941406 8.636719 6.1875 8.578125 C 9.253906 7.839844 12.328125 7.136719 15.382812 6.351562 C 17.074219 5.921875 18.667969 5.1875 20.292969 4.566406 C 20.703125 4.410156 21.050781 4.398438 21.464844 4.546875 C 23.070312 5.121094 24.679688 5.679688 26.304688 6.199219 C 26.8125 6.363281 27.179688 6.695312 27.597656 6.972656 C 28.488281 7.570312 29.378906 8.160156 30.296875 8.710938 C 30.746094 8.980469 31.023438 9.320312 31.21875 9.808594 C 32.019531 11.804688 32.867188 13.78125 33.691406 15.769531 C 33.820312 16.082031 34 16.339844 34.257812 16.566406 C 35.460938 17.628906 36.652344 18.703125 37.847656 19.773438 C 38.1875 20.074219 38.195312 20.121094 37.894531 20.480469 C 34.371094 24.71875 30.84375 28.957031 27.320312 33.195312 C 26.691406 33.949219 26.070312 34.703125 25.441406 35.457031 C 25.351562 35.558594 25.292969 35.699219 25.144531 35.734375 C 25.019531 35.703125 25.003906 35.59375 24.960938 35.503906 C 23.996094 33.339844 23.035156 31.179688 22.074219 29.015625 C 21.984375 28.8125 21.863281 28.640625 21.695312 28.496094 C 20.277344 27.253906 18.855469 26.015625 17.453125 24.757812 C 17.183594 24.519531 16.941406 24.464844 16.59375 24.546875 C 13.738281 25.222656 10.875 25.875 8.015625 26.542969 C 7.796875 26.59375 7.617188 26.5625 7.433594 26.453125 C 6.886719 26.128906 6.339844 25.800781 5.78125 25.496094 C 5.4375 25.3125 5.1875 25.074219 5.082031 24.691406 C 5.035156 24.519531 4.957031 24.355469 4.875 24.199219 C 4.71875 23.898438 4.609375 23.636719 5.082031 23.519531 C 5.246094 23.480469 5.265625 23.304688 5.304688 23.148438 C 5.390625 22.777344 5.410156 22.375 5.660156 22.027344 C 5.953125 22.238281 5.996094 22.558594 6.144531 22.8125 C 6.222656 22.949219 6.246094 23.15625 6.46875 23.136719 C 6.695312 23.113281 6.722656 22.933594 6.769531 22.753906 C 6.859375 22.40625 6.859375 22.027344 7.085938 21.703125 C 7.417969 21.851562 7.464844 22.167969 7.609375 22.410156 C 7.695312 22.5625 7.742188 22.746094 7.980469 22.726562 C 8.230469 22.703125 8.269531 22.523438 8.320312 22.332031 C 8.40625 21.984375 8.390625 21.605469 8.621094 21.277344 C 8.9375 21.464844 9.011719 21.777344 9.175781 22.027344 C 9.261719 22.160156 9.3125 22.335938 9.542969 22.277344 C 9.734375 22.222656 9.851562 22.125 9.882812 21.917969 C 9.914062 21.691406 9.972656 21.46875 10.023438 21.246094 C 10.09375 20.964844 10.238281 20.945312 10.414062 21.15625 C 10.527344 21.292969 10.613281 21.449219 10.714844 21.597656 C 10.800781 21.71875 10.859375 21.878906 11.066406 21.820312 C 11.261719 21.761719 11.457031 21.722656 11.53125 21.480469 C 11.699219 20.925781 11.566406 20.730469 11.003906 20.621094 C 10.4375 20.511719 9.855469 20.449219 9.335938 20.164062 C 9.390625 19.957031 9.554688 19.949219 9.675781 19.910156 C 11.546875 19.253906 13.292969 18.34375 14.976562 17.304688 C 15.710938 16.851562 16.539062 16.699219 17.359375 16.527344 C 17.726562 16.449219 17.863281 16.308594 17.847656 15.921875 C 17.820312 15.097656 17.839844 15.097656 17.039062 15.265625 C 16.613281 15.355469 16.195312 15.464844 15.769531 15.535156 C 15.433594 15.589844 15.257812 15.75 15.1875 16.085938 C 15.152344 16.28125 15.179688 16.585938 14.917969 16.621094 C 14.6875 16.65625 14.621094 16.378906 14.503906 16.222656 C 14.367188 16.03125 14.265625 15.875 13.957031 15.9375 C 13.644531 16 13.578125 16.183594 13.53125 16.429688 C 13.492188 16.628906 13.460938 16.828125 13.402344 17.023438 C 13.324219 17.304688 13.175781 17.308594 13.011719 17.09375 C 12.878906 16.921875 12.75 16.742188 12.644531 16.554688 C 12.519531 16.332031 12.335938 16.328125 12.121094 16.355469 C 11.902344 16.378906 11.828125 16.527344 11.792969 16.714844 C 11.753906 16.902344 11.714844 17.085938 11.667969 17.304688 M 23.390625 5.941406 C 22.789062 5.738281 22.171875 5.570312 21.585938 5.320312 C 21.074219 5.101562 20.632812 5.164062 20.128906 5.359375 C 18.59375 5.96875 17.074219 6.640625 15.46875 7.046875 C 12.4375 7.816406 9.390625 8.511719 6.347656 9.238281 C 6.160156 9.28125 5.984375 9.34375 5.828125 9.460938 C 5.007812 10.085938 4.1875 10.707031 3.359375 11.324219 C 3.136719 11.492188 3.046875 11.699219 3.050781 11.980469 C 3.0625 12.78125 3.0625 13.585938 3.046875 14.386719 C 3.039062 14.683594 3.140625 14.808594 3.441406 14.863281 C 5.269531 15.1875 7.097656 15.492188 8.933594 15.765625 C 9.660156 15.871094 10.382812 16.03125 11.125 15.859375 C 13.046875 15.425781 14.96875 15 16.894531 14.585938 C 17.363281 14.484375 17.824219 14.277344 18.3125 14.339844 C 19.007812 14.429688 19.695312 14.550781 20.386719 14.65625 C 22.871094 15.046875 25.355469 15.4375 27.84375 15.824219 C 28.191406 15.878906 28.261719 15.800781 28.195312 15.457031 C 27.660156 12.78125 27.125 10.101562 26.597656 7.421875 C 26.539062 7.113281 26.398438 6.941406 26.089844 6.84375 C 25.203125 6.566406 24.328125 6.253906 23.390625 5.941406 M 27.261719 20.476562 C 27.203125 20.917969 27.144531 21.359375 27.089844 21.800781 C 26.847656 23.691406 26.601562 25.582031 26.363281 27.472656 C 26.164062 29.070312 25.96875 30.675781 25.773438 32.277344 C 25.703125 32.875 25.644531 33.476562 25.578125 34.078125 C 25.816406 33.917969 25.972656 33.726562 26.132812 33.535156 C 29.753906 29.175781 33.371094 24.816406 36.996094 20.460938 C 37.191406 20.226562 37.167969 20.089844 36.953125 19.898438 C 35.878906 18.945312 34.8125 17.976562 33.734375 17.023438 C 33.453125 16.773438 33.246094 16.488281 33.101562 16.136719 C 32.308594 14.207031 31.484375 12.289062 30.707031 10.351562 C 30.488281 9.800781 30.171875 9.410156 29.660156 9.113281 C 28.890625 8.671875 28.160156 8.171875 27.386719 7.679688 C 27.378906 7.757812 27.367188 7.796875 27.375 7.828125 C 27.90625 10.484375 28.429688 13.136719 28.972656 15.789062 C 29.039062 16.113281 28.992188 16.347656 28.769531 16.582031 C 28.5 16.871094 28.25 17.175781 28 17.484375 C 27.808594 17.71875 27.5625 17.933594 27.519531 18.25 C 27.425781 18.96875 27.351562 19.691406 27.261719 20.476562 M 5.976562 24.796875 C 6.492188 25.097656 7.011719 25.394531 7.527344 25.699219 C 7.746094 25.828125 7.957031 25.859375 8.214844 25.800781 C 12.957031 24.703125 17.699219 23.613281 22.445312 22.53125 C 22.722656 22.46875 22.925781 22.339844 23.109375 22.128906 C 24.457031 20.550781 25.8125 18.980469 27.160156 17.40625 C 27.386719 17.136719 27.601562 16.859375 27.839844 16.558594 C 27.652344 16.480469 27.519531 16.519531 27.386719 16.542969 C 24.492188 17.042969 21.613281 17.617188 18.734375 18.1875 C 18.511719 18.230469 18.296875 18.300781 18.101562 18.433594 C 16.503906 19.523438 14.902344 20.605469 13.300781 21.691406 C 13.058594 21.859375 12.804688 21.996094 12.519531 22.085938 C 10.421875 22.75 8.3125 23.367188 6.183594 23.929688 C 5.566406 24.09375 5.554688 24.113281 5.859375 24.675781 C 5.878906 24.707031 5.90625 24.734375 5.976562 24.796875 M 23.539062 30.625 C 23.980469 31.601562 24.421875 32.578125 24.910156 33.648438 C 25.519531 28.722656 26.121094 23.921875 26.71875 19.121094 C 26.546875 19.179688 26.46875 19.257812 26.394531 19.34375 C 25.460938 20.4375 24.523438 21.53125 23.597656 22.632812 C 23.347656 22.929688 23.058594 23.101562 22.675781 23.183594 C 21.621094 23.410156 20.570312 23.667969 19.519531 23.910156 C 19.015625 24.027344 18.515625 24.152344 18.019531 24.269531 C 18.042969 24.433594 18.148438 24.476562 18.222656 24.542969 C 19.492188 25.660156 20.761719 26.785156 22.039062 27.894531 C 22.367188 28.175781 22.609375 28.5 22.773438 28.898438 C 23.007812 29.460938 23.269531 30.015625 23.539062 30.625 M 25.097656 16.109375 C 22.933594 15.761719 20.773438 15.410156 18.59375 15.058594 C 18.59375 15.917969 18.59375 16.691406 18.59375 17.484375 C 18.75 17.464844 18.863281 17.457031 18.976562 17.4375 C 20.484375 17.144531 21.988281 16.847656 23.496094 16.550781 C 24.03125 16.449219 24.570312 16.34375 25.101562 16.234375 C 25.140625 16.226562 25.355469 16.234375 25.097656 16.109375 M 16.789062 18.503906 C 17.019531 18.347656 17.242188 18.171875 17.484375 18.035156 C 17.847656 17.828125 17.90625 17.539062 17.796875 17.164062 C 17.601562 17.132812 17.433594 17.1875 17.261719 17.21875 C 16.359375 17.378906 15.546875 17.742188 14.769531 18.222656 C 13.703125 18.882812 12.597656 19.476562 11.433594 19.980469 C 11.8125 20.054688 12.1875 20.101562 12.558594 20.117188 C 13.109375 20.136719 13.109375 20.128906 13.335938 19.640625 C 13.59375 19.667969 13.695312 19.890625 13.851562 20.046875 C 13.953125 20.148438 14.03125 20.324219 14.222656 20.214844 C 14.394531 20.117188 14.613281 20.054688 14.617188 19.796875 C 14.617188 19.671875 14.609375 19.542969 14.621094 19.417969 C 14.632812 19.273438 14.542969 19.082031 14.699219 18.992188 C 14.875 18.894531 15.019531 19.042969 15.132812 19.152344 C 15.371094 19.382812 15.582031 19.359375 15.835938 19.164062 C 16.125 18.9375 16.441406 18.742188 16.789062 18.503906 M 13.113281 20.90625 C 12.921875 20.75 12.636719 20.730469 12.269531 20.851562 C 12.453125 21.3125 12.535156 21.34375 12.910156 21.089844 C 12.972656 21.046875 13.03125 20.996094 13.113281 20.90625 Z M 13.113281 20.90625 "/>
<path style=" stroke:none;fill-rule:nonzero;fill:rgb(100%,100%,100%);fill-opacity:1;" d="M 21.925781 6.816406 C 22.878906 7.238281 23.800781 7.648438 24.726562 8.058594 C 24.714844 8.097656 24.703125 8.140625 24.691406 8.183594 C 24.160156 8.167969 23.625 8.246094 23.109375 8.035156 C 22.390625 7.742188 21.667969 7.453125 20.957031 7.144531 C 20.75 7.054688 20.585938 7.058594 20.382812 7.148438 C 19.152344 7.675781 17.921875 8.195312 16.683594 8.695312 C 16.425781 8.800781 16.367188 8.910156 16.449219 9.175781 C 16.789062 10.242188 17.097656 11.320312 17.4375 12.386719 C 17.542969 12.710938 17.46875 12.878906 17.140625 12.988281 C 16.441406 13.21875 15.75 13.476562 15.050781 13.71875 C 14.972656 13.746094 14.886719 13.792969 14.777344 13.71875 C 14.867188 13.515625 15.074219 13.460938 15.230469 13.351562 C 15.632812 13.082031 16.042969 12.828125 16.457031 12.574219 C 16.664062 12.445312 16.714844 12.292969 16.640625 12.058594 C 16.347656 11.164062 16.0625 10.265625 15.785156 9.367188 C 15.707031 9.101562 15.589844 9.003906 15.292969 9.066406 C 14.195312 9.296875 13.097656 9.503906 12 9.714844 C 11.636719 9.785156 11.410156 10.054688 11.144531 10.265625 C 10.683594 10.625 10.230469 11 9.777344 11.371094 C 9.640625 11.480469 9.511719 11.574219 9.363281 11.375 C 9.234375 11.203125 9.226562 11.070312 9.402344 10.917969 C 9.964844 10.417969 10.519531 9.910156 11.074219 9.40625 C 11.511719 9.007812 12.089844 9.019531 12.613281 8.898438 C 13.589844 8.679688 14.582031 8.511719 15.570312 8.328125 C 16.128906 8.226562 16.636719 7.996094 17.148438 7.773438 C 18.214844 7.316406 19.277344 6.863281 20.339844 6.394531 C 20.554688 6.300781 20.742188 6.28125 20.957031 6.382812 C 21.265625 6.535156 21.585938 6.664062 21.925781 6.816406 Z M 21.925781 6.816406 "/>
<path style=" stroke:none;fill-rule:nonzero;fill:rgb(100%,100%,100%);fill-opacity:1;" d="M 21.613281 10.511719 C 21.566406 10.808594 21.382812 10.933594 21.160156 11.0625 C 20.386719 11.503906 19.660156 11.558594 18.839844 11.105469 C 18.375 10.847656 18.003906 10.628906 17.925781 10.0625 C 17.882812 9.75 17.765625 9.449219 17.675781 9.144531 C 17.609375 8.914062 17.679688 8.757812 17.898438 8.648438 C 18.546875 8.320312 19.191406 7.984375 19.828125 7.636719 C 20.054688 7.515625 20.253906 7.515625 20.472656 7.648438 C 20.917969 7.917969 21.371094 8.179688 21.824219 8.4375 C 22.050781 8.5625 22.113281 8.726562 22.039062 8.976562 C 21.886719 9.472656 21.757812 9.980469 21.613281 10.511719 M 19.785156 8.445312 C 19.414062 8.636719 19.039062 8.824219 18.667969 9.019531 C 18.535156 9.09375 18.40625 9.164062 18.453125 9.367188 C 18.582031 9.902344 18.664062 10.457031 19.351562 10.574219 C 19.449219 10.589844 19.539062 10.65625 19.632812 10.695312 C 19.953125 10.824219 20.742188 10.640625 20.910156 10.347656 C 21.140625 9.9375 21.273438 9.460938 21.28125 9.007812 C 21.289062 8.714844 20.832031 8.703125 20.605469 8.535156 C 20.558594 8.496094 20.492188 8.476562 20.445312 8.433594 C 20.242188 8.257812 20.042969 8.257812 19.785156 8.445312 Z M 19.785156 8.445312 "/>
<path style=" stroke:none;fill-rule:nonzero;fill:rgb(100%,100%,100%);fill-opacity:1;" d="M 18.953125 12.089844 C 18.660156 11.855469 18.28125 11.742188 18.140625 11.378906 C 18.292969 11.222656 18.40625 11.324219 18.515625 11.367188 C 18.972656 11.554688 19.429688 11.746094 19.882812 11.945312 C 20.082031 12.03125 20.265625 12.050781 20.46875 11.960938 C 20.898438 11.765625 21.328125 11.585938 21.765625 11.410156 C 21.953125 11.335938 22.03125 11.195312 22.089844 11.019531 C 22.285156 10.425781 22.480469 9.835938 22.6875 9.25 C 22.746094 9.074219 22.800781 8.878906 23.0625 8.890625 C 23.378906 8.898438 23.472656 9.015625 23.375 9.3125 C 23.136719 10.035156 22.894531 10.757812 22.660156 11.480469 C 22.597656 11.671875 22.496094 11.8125 22.304688 11.898438 C 21.652344 12.183594 21.003906 12.46875 20.355469 12.769531 C 20.164062 12.855469 20.015625 12.808594 19.859375 12.703125 C 19.566406 12.503906 19.273438 12.304688 18.953125 12.089844 Z M 18.953125 12.089844 "/>
<path style=" stroke:none;fill-rule:nonzero;fill:rgb(100%,100%,100%);fill-opacity:1;" d="M 4.808594 12.582031 C 4.851562 11.949219 5.09375 11.496094 5.679688 11.242188 C 5.964844 11.121094 6.1875 10.863281 6.488281 10.757812 C 6.777344 11.160156 6.757812 11.304688 6.410156 11.585938 C 5.953125 11.953125 5.503906 12.328125 5.046875 12.695312 C 4.9375 12.785156 4.792969 12.898438 4.808594 12.582031 Z M 4.808594 12.582031 "/>
<path style=" stroke:none;fill-rule:nonzero;fill:rgb(100%,100%,100%);fill-opacity:1;" d="M 19.960938 10.234375 C 19.707031 10.292969 19.589844 10.175781 19.550781 9.976562 C 19.5 9.699219 19.503906 9.417969 19.542969 9.140625 C 19.5625 9.007812 19.644531 8.90625 19.792969 8.890625 C 19.929688 8.878906 20.046875 8.914062 20.121094 9.039062 C 20.246094 9.25 20.160156 10.027344 19.960938 10.234375 Z M 19.960938 10.234375 "/>
</g>
</svg>
