<?xml version="1.0" encoding="utf-8"?>
<svg version="1.1" xmlns="http://www.w3.org/2000/svg" viewBox="0 0 1024 1024">
  <path opacity="1.000000" stroke="none" d="M 298.71 443.002 C 297.234 446.954 298.179 451.91 293.978 452.807 C 289.247 453.818 287.731 448.979 285.573 445.904 C 283.517 442.975 281.398 439.986 279.986 436.728 C 276.138 427.85 269.35 425.416 260.252 426.185 C 255.75 426.565 252.838 427.636 251.805 432.37 C 250.765 437.133 249.482 441.855 248.033 446.511 C 247.02 449.766 247.486 454.603 243.227 455.305 C 238.469 456.09 236.902 451.292 235.159 448.02 C 231.642 441.417 228.08 434.74 225.572 427.724 C 222.785 419.932 216.753 419.008 210.082 418.549 C 203.1 418.07 203.014 423.899 201.222 428.237 C 198.318 435.268 198.695 443.589 192.848 450.251 C 185.66 445.359 183.454 437.659 179.836 431.032 C 177.344 426.467 175.541 421.533 173.23 416.862 C 170.462 411.268 165.083 410.903 159.831 410.831 C 154.456 410.757 154.173 415.503 152.982 419.026 C 150.531 426.279 150.326 434.277 145.894 442.17 C 137.659 436.701 135.274 428.399 131.469 421.205 C 129.343 417.186 127.735 412.887 125.999 408.67 C 124.087 404.025 120.417 402.708 115.776 402.825 C 110.399 402.96 110.116 406.87 109.116 410.814 C 107.084 418.832 107.424 427.474 103.835 434.961 C 98.482 434.961 96.956 431.332 95.244 428.398 C 90.813 420.808 86.405 413.172 82.587 405.265 C 79.865 399.629 76.701 395.351 69.996 394.415 C 63.524 393.511 60.947 389.698 61.019 382.877 C 61.328 353.534 61.291 324.186 61.099 294.841 C 61.061 288.929 63.524 285.086 67.985 281.723 C 92.192 263.474 116.351 245.162 140.445 226.765 C 145.828 222.655 152.087 221.124 158.425 219.6 C 236.91 200.727 315.605 182.67 393.797 162.648 C 437.051 151.572 477.88 132.847 519.537 116.882 C 529.975 112.882 538.906 112.603 549.464 116.383 C 590.555 131.094 631.796 145.444 673.361 158.741 C 686.367 162.902 695.772 171.376 706.5 178.546 C 729.262 193.756 752.11 208.892 775.563 222.994 C 787.058 229.907 794.161 238.6 799.194 251.126 C 819.72 302.217 841.416 352.836 862.485 403.709 C 865.808 411.731 870.406 418.333 876.976 424.125 C 907.787 451.287 938.29 478.799 968.926 506.16 C 977.636 513.939 977.755 515.091 970.101 524.292 C 879.854 632.784 789.599 741.269 699.361 849.767 C 683.313 869.062 667.374 888.446 651.267 907.69 C 649.049 910.339 647.549 913.947 643.716 914.834 C 640.523 914.038 640.064 911.193 639.039 908.896 C 614.348 853.538 589.678 798.172 565.052 742.785 C 562.764 737.638 559.736 733.218 555.437 729.458 C 519.119 697.691 482.745 665.984 446.776 633.825 C 439.929 627.703 433.701 626.302 424.846 628.391 C 351.667 645.661 278.367 662.42 205.151 679.537 C 199.585 680.839 195.019 680.033 190.29 677.234 C 176.266 668.933 162.319 660.473 147.995 652.717 C 139.229 647.97 132.804 641.928 130.076 632.088 C 128.866 627.725 126.935 623.492 124.823 619.466 C 120.789 611.777 118.023 605.067 130.142 602.103 C 134.285 601.09 134.839 596.57 135.78 592.589 C 138.035 583.062 138.492 572.84 144.891 563.917 C 152.431 569.278 153.528 577.501 157.331 584.048 C 159.317 587.466 159.862 592.815 165.615 592.252 C 171.376 591.687 172.066 587.115 173.289 582.469 C 175.624 573.594 175.638 563.875 181.42 555.57 C 189.866 559.433 191.128 567.457 194.758 573.669 C 197.039 577.572 198.17 582.261 204.305 581.752 C 210.714 581.221 211.742 576.638 212.985 571.711 C 215.219 562.848 214.778 553.108 220.655 544.688 C 228.761 549.492 230.699 557.516 234.861 563.882 C 237.117 567.333 238.438 571.818 244.286 570.26 C 249.237 568.941 252.161 566.37 252.962 561.061 C 253.832 555.289 255.255 549.59 256.628 543.906 C 258.372 536.682 262.069 536.16 266.586 541.611 C 269.482 545.105 271.715 549.142 274.343 552.866 C 276.524 555.956 278.031 560.078 283.291 558.567 C 288.344 557.116 293.301 556.06 295.167 549.902 C 299.472 535.692 296.12 530.679 281.687 527.905 C 267.225 525.126 252.289 523.524 239.018 516.25 C 240.382 510.881 244.598 510.749 247.658 509.679 C 295.605 492.906 340.31 469.552 383.429 442.994 C 402.184 431.442 423.415 427.474 444.391 423.059 C 453.767 421.085 457.28 417.467 456.933 407.578 C 456.193 386.522 456.735 386.471 436.169 390.792 C 425.34 393.067 414.608 395.898 403.703 397.686 C 395.138 399.09 390.552 403.151 388.843 411.826 C 387.855 416.839 388.552 424.567 381.873 425.545 C 376.033 426.401 374.272 419.303 371.325 415.257 C 367.778 410.391 365.162 406.414 357.332 407.965 C 349.303 409.556 347.613 414.266 346.364 420.555 C 345.351 425.66 344.55 430.832 343.14 435.829 C 341.13 442.957 337.287 443.106 333.056 437.58 C 329.693 433.187 326.428 428.649 323.735 423.831 C 320.545 418.126 315.791 418.023 310.314 418.652 C 304.655 419.302 302.846 423.129 301.856 427.878 C 300.859 432.656 299.855 437.433 298.71 443.002 M 598.79 152.061 C 583.371 146.862 567.572 142.556 552.649 136.194 C 539.532 130.602 528.153 132.15 515.316 137.218 C 475.967 152.754 437.067 170.046 396.014 180.433 C 318.431 200.062 240.404 217.938 162.548 236.489 C 157.736 237.635 153.223 239.159 149.215 242.204 C 128.203 258.17 107.177 274.119 86.05 289.931 C 80.327 294.214 77.974 299.496 78.072 306.684 C 78.354 327.212 78.405 347.753 77.97 368.276 C 77.808 375.939 80.351 379.128 88.09 380.499 C 134.855 388.784 181.694 396.589 228.671 403.562 C 247.303 406.328 265.778 410.362 284.845 406.046 C 334.017 394.916 383.242 384.013 432.528 373.401 C 444.528 370.817 456.281 365.537 468.844 367.131 C 486.586 369.382 504.222 372.472 521.898 375.238 C 585.516 385.192 649.127 395.19 712.754 405.087 C 721.689 406.477 723.506 404.507 721.765 395.74 C 708.145 327.162 694.392 258.611 680.938 190.001 C 679.38 182.058 675.796 177.722 667.851 175.225 C 645.182 168.103 622.787 160.111 598.79 152.061 M 697.867 524.22 C 696.394 535.514 694.899 546.805 693.452 558.102 C 687.255 606.486 680.99 654.861 674.909 703.259 C 669.759 744.25 664.773 785.263 659.829 826.28 C 657.979 841.628 656.455 857.015 654.782 872.384 C 660.875 868.251 664.943 863.351 669.013 858.451 C 761.679 746.88 854.299 635.271 947.135 523.841 C 952.148 517.824 951.538 514.315 946.021 509.426 C 918.455 484.999 891.25 460.165 863.65 435.776 C 856.377 429.35 851.116 422.114 847.41 413.085 C 827.122 363.656 806.006 314.562 786.148 264.964 C 780.513 250.888 772.391 240.855 759.288 233.295 C 739.646 221.963 720.858 209.152 701.095 196.581 C 700.935 198.597 700.648 199.556 700.82 200.423 C 714.354 268.359 727.752 336.323 741.71 404.172 C 743.425 412.512 742.167 418.487 736.479 424.524 C 729.563 431.865 723.195 439.738 716.802 447.555 C 711.883 453.57 705.638 459.072 704.549 467.214 C 702.09 485.595 700.194 504.051 697.867 524.22 M 152.978 634.807 C 166.224 642.482 179.527 650.059 192.688 657.876 C 198.309 661.215 203.687 661.985 210.303 660.454 C 331.672 632.359 453.088 604.468 574.55 576.779 C 581.69 575.152 586.929 571.904 591.562 566.486 C 626.079 526.121 660.764 485.901 695.309 445.56 C 701.144 438.747 706.555 431.571 712.67 423.926 C 707.932 421.893 704.533 422.909 701.083 423.504 C 627.029 436.277 553.338 450.958 479.634 465.571 C 473.879 466.712 468.433 468.491 463.416 471.912 C 422.507 499.811 381.483 527.539 340.501 555.331 C 334.274 559.554 327.762 563.091 320.518 565.387 C 266.825 582.401 212.773 598.174 158.337 612.628 C 142.472 616.84 142.178 617.303 150.011 631.677 C 150.469 632.517 151.236 633.189 152.978 634.807 M 602.629 784.042 C 613.935 809.007 625.241 833.973 637.651 861.377 C 653.346 735.334 668.652 612.407 683.958 489.481 C 679.583 490.985 677.558 493.033 675.694 495.219 C 651.792 523.239 627.79 551.176 604.11 579.382 C 597.736 586.975 590.35 591.45 580.537 593.536 C 553.479 599.287 526.594 605.855 499.652 612.148 C 486.826 615.145 474.026 618.252 461.299 621.288 C 461.923 625.535 464.597 626.603 466.478 628.262 C 499.009 656.934 531.457 685.702 564.225 714.101 C 572.583 721.346 578.767 729.603 582.999 739.8 C 588.994 754.242 595.712 768.383 602.629 784.042 M 642.461 412.374 C 587.132 403.453 531.803 394.532 476.021 385.538 C 476.021 407.453 476.021 427.301 476.021 447.633 C 480.022 447.132 482.929 446.939 485.766 446.386 C 524.359 438.866 562.941 431.296 601.527 423.739 C 615.237 421.054 628.956 418.412 642.641 415.599 C 643.605 415.401 649.115 415.556 642.461 412.374 M 429.804 473.727 C 435.716 469.695 441.39 465.243 447.595 461.73 C 456.934 456.442 458.438 448.956 455.58 439.424 C 450.642 438.6 446.276 440.008 441.881 440.796 C 418.847 444.927 397.997 454.163 378.106 466.46 C 350.778 483.354 322.489 498.6 292.675 511.533 C 302.41 513.392 311.951 514.634 321.524 514.994 C 335.631 515.524 335.641 515.256 341.44 502.769 C 347.968 503.518 350.59 509.249 354.587 513.231 C 357.171 515.806 359.234 520.29 364.146 517.508 C 368.548 515.014 374.077 513.413 374.157 506.82 C 374.197 503.568 373.982 500.295 374.278 497.067 C 374.619 493.357 372.329 488.509 376.333 486.229 C 380.797 483.687 384.477 487.542 387.405 490.328 C 393.54 496.164 398.929 495.605 405.355 490.578 C 412.769 484.778 420.861 479.846 429.804 473.727 M 335.669 535.156 C 330.756 531.177 323.458 530.731 314.055 533.834 C 318.803 545.579 320.884 546.357 330.508 539.867 C 332.11 538.786 333.554 537.47 335.669 535.156 Z" style="fill: rgb(255, 255, 255);" id="object-0"/>
  <path opacity="1.000000" stroke="none" d="M 561.301 174.499 C 585.654 185.266 609.316 195.76 632.978 206.253 C 632.676 207.341 632.374 208.429 632.073 209.518 C 618.525 209.115 604.837 211.127 591.58 205.691 C 573.193 198.152 554.717 190.818 536.487 182.917 C 531.221 180.634 527.007 180.717 521.761 182.969 C 490.329 196.459 458.817 209.775 427.123 222.634 C 420.5 225.321 418.986 228.13 421.147 234.931 C 429.82 262.23 437.73 289.771 446.427 317.062 C 449.085 325.403 447.177 329.727 438.815 332.487 C 420.88 338.406 403.162 344.979 385.322 351.192 C 383.297 351.897 381.108 353.145 378.277 351.151 C 380.566 345.995 385.943 344.554 389.948 341.843 C 400.199 334.903 410.723 328.354 421.293 321.903 C 426.636 318.643 427.888 314.66 425.959 308.733 C 418.501 285.815 411.202 262.842 404.147 239.797 C 402.072 233.02 399.065 230.496 391.456 232.104 C 363.444 238.022 335.289 243.266 307.171 248.674 C 297.928 250.452 292.111 257.448 285.27 262.807 C 273.472 272.048 261.944 281.634 250.305 291.079 C 246.801 293.922 243.477 296.315 239.695 291.191 C 236.446 286.79 236.237 283.397 240.708 279.454 C 255.131 266.738 269.309 253.742 283.513 240.779 C 294.69 230.578 309.46 230.86 322.857 227.828 C 347.917 222.157 373.296 217.875 398.585 213.244 C 412.854 210.631 425.881 204.678 439.04 199.026 C 466.282 187.326 493.549 175.68 520.684 163.738 C 526.165 161.325 531.041 160.776 536.525 163.427 C 544.443 167.255 552.572 170.647 561.301 174.499 Z" style="fill: rgb(255, 255, 255);" id="object-1"/>
  <path opacity="1.000000" stroke="none" d="M 553.285 269.09 C 552.072 276.694 547.432 279.867 541.679 283.167 C 521.912 294.501 503.271 295.87 482.33 284.334 C 470.359 277.738 460.944 272.052 458.894 257.602 C 457.761 249.612 454.792 241.873 452.545 234.052 C 450.85 228.15 452.553 224.237 458.236 221.363 C 474.809 212.984 491.281 204.394 507.609 195.549 C 513.406 192.409 518.496 192.371 524.102 195.755 C 535.539 202.661 547.071 209.419 558.712 215.974 C 564.485 219.225 566.081 223.366 564.156 229.757 C 560.31 242.529 556.987 255.459 553.285 269.09 M 506.475 216.155 C 496.96 221.071 487.412 225.924 477.948 230.936 C 474.494 232.765 471.189 234.592 472.434 239.834 C 475.679 253.503 477.844 267.708 495.443 270.712 C 497.92 271.135 500.159 272.841 502.569 273.798 C 510.78 277.061 531.04 272.438 535.264 264.909 C 541.152 254.418 544.611 242.247 544.83 230.581 C 544.971 223.097 533.337 222.808 527.546 218.452 C 526.258 217.483 524.584 216.989 523.395 215.931 C 518.244 211.35 513.057 211.356 506.475 216.155 Z" style="fill: rgb(255, 255, 255);" id="object-2"/>
  <path opacity="1.000000" stroke="none" d="M 485.249 309.481 C 477.657 303.466 468.028 300.603 464.369 291.346 C 468.269 287.26 471.229 289.877 473.982 291 C 485.718 295.791 497.421 300.672 509.022 305.778 C 514.08 308.005 518.766 308.528 523.994 306.178 C 534.962 301.248 546.046 296.561 557.202 292.074 C 561.979 290.153 564.043 286.562 565.527 282.051 C 570.502 266.927 575.497 251.808 580.771 236.788 C 582.334 232.336 583.731 227.342 590.395 227.564 C 598.457 227.833 600.916 230.768 598.419 238.371 C 592.335 256.892 586.084 275.358 580.073 293.902 C 578.476 298.829 575.942 302.445 571.012 304.592 C 554.322 311.862 537.666 319.22 521.145 326.863 C 516.245 329.13 512.386 327.916 508.426 325.224 C 500.897 320.105 493.369 314.987 485.249 309.481 Z" style="fill: rgb(255, 255, 255);" id="object-3"/>
  <path opacity="1.000000" stroke="none" d="M 123.079 322.112 C 124.158 305.934 130.361 294.258 145.367 287.816 C 152.742 284.65 158.362 278.09 166.105 275.363 C 173.473 285.695 172.997 289.373 164.07 296.576 C 152.405 305.987 140.918 315.619 129.244 325.018 C 126.387 327.319 122.72 330.18 123.079 322.112 Z" style="fill: rgb(255, 255, 255);" id="object-4"/>
  <path opacity="1.000000" stroke="none" d="M 510.989 262.044 C 504.535 263.526 501.464 260.542 500.515 255.413 C 499.205 248.334 499.293 241.117 500.329 234.006 C 500.823 230.615 502.876 228.013 506.735 227.62 C 510.241 227.264 513.182 228.163 515.087 231.384 C 518.289 236.797 516.085 256.672 510.989 262.044 Z" style="fill: rgb(255, 255, 255);" id="object-5"/>
</svg>