<?xml version="1.0" encoding="utf-8"?>
<svg version="1.1" xmlns="http://www.w3.org/2000/svg" viewBox="0 0 1500 1500"> <path opacity="1.000000" stroke="none" d="M 410.902 633.037 C 408.575 639.271 410.065 647.087 403.439 648.501 C 395.978 650.095 393.588 642.465 390.184 637.615 C 386.941 632.996 383.599 628.281 381.373 623.143 C 375.304 609.141 364.598 605.302 350.25 606.516 C 343.15 607.115 338.557 608.804 336.929 616.271 C 335.288 623.781 333.265 631.228 330.98 638.572 C 329.382 643.706 330.117 651.333 323.4 652.441 C 315.897 653.679 313.425 646.112 310.675 640.952 C 305.129 630.538 299.512 620.008 295.556 608.943 C 291.162 596.654 281.648 595.197 271.127 594.472 C 260.115 593.717 259.981 602.91 257.154 609.752 C 252.574 620.84 253.169 633.963 243.947 644.47 C 232.611 636.755 229.132 624.612 223.427 614.16 C 219.496 606.96 216.652 599.179 213.007 591.813 C 208.642 582.99 200.159 582.414 191.877 582.301 C 183.4 582.184 182.953 589.669 181.075 595.225 C 177.21 606.664 176.885 619.277 169.896 631.725 C 156.908 623.1 153.148 610.008 147.146 598.661 C 143.793 592.323 141.257 585.543 138.52 578.893 C 135.505 571.567 129.717 569.49 122.397 569.674 C 113.916 569.887 113.471 576.054 111.893 582.274 C 108.689 594.919 109.226 608.549 103.565 620.356 C 95.123 620.356 92.716 614.632 90.016 610.006 C 83.028 598.035 76.076 585.993 70.055 573.522 C 65.761 564.633 60.772 557.887 50.198 556.411 C 39.99 554.986 35.927 548.972 36.04 538.215 C 36.527 491.937 36.469 445.653 36.166 399.373 C 36.106 390.049 39.99 383.989 47.025 378.684 C 85.203 349.904 123.303 321.024 161.303 292.01 C 169.792 285.529 179.663 283.114 189.659 280.71 C 313.437 250.945 437.547 222.469 560.864 190.892 C 629.08 173.424 693.471 143.892 759.169 118.714 C 775.63 112.405 789.716 111.965 806.367 117.926 C 871.171 141.127 936.212 163.76 1001.76 184.73 C 1022.28 191.292 1037.11 204.656 1054.03 215.965 C 1089.92 239.951 1125.96 263.822 1162.95 286.063 C 1181.08 296.966 1192.28 310.676 1200.22 330.431 C 1232.59 411.006 1266.8 490.838 1300.04 571.069 C 1305.27 583.721 1312.53 594.132 1322.89 603.267 C 1371.48 646.104 1419.58 689.493 1467.9 732.644 C 1481.63 744.912 1481.82 746.729 1469.75 761.24 C 1327.42 932.342 1185.08 1103.43 1042.77 1274.55 C 1017.46 1304.98 992.32 1335.55 966.92 1365.9 C 963.422 1370.07 961.056 1375.77 955.011 1377.17 C 949.976 1375.9 949.252 1371.42 947.635 1367.8 C 908.695 1280.49 869.788 1193.18 830.95 1105.83 C 827.342 1097.71 822.567 1090.74 815.786 1084.81 C 758.509 1034.71 701.144 984.702 644.417 933.984 C 633.619 924.33 623.797 922.12 609.831 925.415 C 494.42 952.65 378.82 979.081 263.351 1006.08 C 254.572 1008.13 247.371 1006.86 239.913 1002.45 C 217.796 989.354 195.8 976.011 173.209 963.779 C 159.385 956.293 149.252 946.763 144.949 931.245 C 143.041 924.365 139.996 917.689 136.665 911.338 C 130.304 899.212 125.941 888.63 145.054 883.956 C 151.588 882.358 152.461 875.23 153.946 868.951 C 157.502 853.926 158.222 837.805 168.314 823.733 C 180.206 832.187 181.935 845.155 187.933 855.482 C 191.065 860.872 191.925 869.308 200.999 868.419 C 210.084 867.528 211.173 860.318 213.102 852.992 C 216.783 838.995 216.806 823.667 225.925 810.569 C 239.244 816.661 241.235 829.316 246.96 839.112 C 250.557 845.268 252.341 852.663 262.016 851.86 C 272.124 851.022 273.745 843.795 275.706 836.024 C 279.228 822.046 278.534 806.686 287.802 793.407 C 300.586 800.983 303.643 813.638 310.206 823.678 C 313.765 829.121 315.847 836.194 325.071 833.736 C 332.879 831.657 337.49 827.601 338.753 819.229 C 340.125 810.125 342.369 801.138 344.535 792.174 C 347.285 780.78 353.115 779.958 360.24 788.554 C 364.807 794.065 368.329 800.431 372.473 806.304 C 375.912 811.177 378.289 817.679 386.585 815.295 C 394.554 813.007 402.372 811.342 405.315 801.629 C 412.104 779.219 406.817 771.314 384.055 766.938 C 361.248 762.555 337.692 760.029 316.762 748.557 C 318.913 740.09 325.562 739.881 330.389 738.195 C 406.006 711.741 476.509 674.909 544.512 633.025 C 574.091 614.806 607.574 608.549 640.655 601.586 C 655.442 598.473 660.984 592.767 660.436 577.17 C 659.269 543.963 660.124 543.883 627.689 550.697 C 610.61 554.286 593.685 558.75 576.487 561.57 C 562.979 563.784 555.746 570.188 553.051 583.87 C 551.492 591.776 552.592 603.964 542.058 605.507 C 532.848 606.857 530.071 595.662 525.423 589.281 C 519.83 581.606 515.704 575.335 503.355 577.781 C 490.692 580.29 488.027 587.718 486.058 597.637 C 484.46 605.687 483.196 613.844 480.973 621.726 C 477.803 632.966 471.742 633.202 465.07 624.486 C 459.765 617.559 454.617 610.402 450.369 602.803 C 445.338 593.806 437.841 593.643 429.204 594.635 C 420.278 595.661 417.425 601.696 415.864 609.185 C 414.292 616.721 412.709 624.255 410.902 633.037 M 884.159 174.195 C 859.841 165.995 834.924 159.205 811.39 149.171 C 790.702 140.352 772.756 142.793 752.511 150.786 C 690.454 175.288 629.105 202.559 564.36 218.941 C 442.004 249.897 318.948 278.09 196.161 307.346 C 188.572 309.154 181.455 311.557 175.134 316.36 C 141.996 341.539 108.835 366.693 75.516 391.63 C 66.491 398.384 62.78 406.714 62.934 418.051 C 63.379 450.426 63.46 482.821 62.773 515.188 C 62.518 527.273 66.529 532.302 78.734 534.465 C 152.487 547.53 226.357 559.839 300.443 570.837 C 329.829 575.199 358.965 581.56 389.036 574.754 C 466.585 557.201 544.217 540.006 621.946 523.27 C 640.872 519.195 659.407 510.867 679.22 513.381 C 707.202 516.932 735.015 521.804 762.892 526.167 C 863.223 541.865 963.544 557.633 1063.89 573.242 C 1077.98 575.434 1080.85 572.327 1078.1 558.501 C 1056.62 450.347 1034.93 342.235 1013.71 234.03 C 1011.26 221.503 1005.61 214.665 993.07 210.726 C 957.323 199.494 922.004 186.89 884.159 174.195 M 1040.41 761.126 C 1038.09 778.939 1035.73 796.746 1033.45 814.561 C 1023.68 890.869 1013.8 967.16 1004.2 1043.49 C 996.08 1108.14 988.22 1172.82 980.42 1237.51 C 977.51 1261.71 975.1 1285.98 972.463 1310.22 C 982.07 1303.7 988.49 1295.97 994.91 1288.24 C 1141.05 1112.28 1287.12 936.265 1433.53 760.528 C 1441.44 751.039 1440.47 745.506 1431.78 737.795 C 1388.3 699.272 1345.39 660.105 1301.87 621.641 C 1290.4 611.507 1282.1 600.095 1276.26 585.855 C 1244.26 507.901 1210.96 430.475 1179.64 352.254 C 1170.75 330.055 1157.94 314.232 1137.28 302.309 C 1106.3 284.437 1076.67 264.233 1045.5 244.407 C 1045.25 247.587 1044.8 249.099 1045.07 250.466 C 1066.41 357.609 1087.54 464.794 1109.56 571.799 C 1112.26 584.952 1110.28 594.376 1101.31 603.896 C 1090.4 615.474 1080.36 627.89 1070.28 640.218 C 1062.52 649.705 1052.67 658.382 1050.95 671.223 C 1047.07 700.211 1044.08 729.318 1040.41 761.126 M 181.069 935.534 C 201.958 947.638 222.939 959.588 243.696 971.915 C 252.56 977.181 261.041 978.396 271.475 975.982 C 462.887 931.672 654.372 887.686 845.929 844.018 C 857.189 841.451 865.452 836.328 872.76 827.784 C 927.196 764.125 981.9 700.694 1036.38 637.071 C 1045.58 626.328 1054.11 615.009 1063.76 602.953 C 1056.29 599.747 1050.92 601.349 1045.48 602.287 C 928.694 622.431 812.476 645.585 696.237 668.632 C 687.161 670.431 678.573 673.236 670.66 678.631 C 606.143 722.631 541.443 766.36 476.811 810.192 C 466.991 816.852 456.721 822.43 445.296 826.051 C 360.617 852.884 275.371 877.759 189.52 900.554 C 164.5 907.198 164.035 907.928 176.389 930.597 C 177.111 931.921 178.322 932.982 181.069 935.534 M 890.213 1170.89 C 908.043 1210.26 925.875 1249.64 945.446 1292.86 C 970.199 1094.08 994.34 900.206 1018.48 706.339 C 1011.58 708.712 1008.38 711.941 1005.44 715.39 C 967.748 759.579 929.894 803.639 892.548 848.122 C 882.496 860.097 870.847 867.155 855.371 870.445 C 812.698 879.514 770.298 889.873 727.807 899.798 C 707.58 904.524 687.393 909.424 667.322 914.212 C 668.306 920.911 672.523 922.595 675.489 925.211 C 726.794 970.429 777.968 1015.8 829.645 1060.59 C 842.828 1072.01 852.579 1085.04 859.254 1101.12 C 868.71 1123.89 879.304 1146.19 890.213 1170.89 M 953.032 584.734 C 865.773 570.665 778.513 556.595 690.54 542.411 C 690.54 576.973 690.54 608.275 690.54 640.341 C 696.85 639.551 701.434 639.246 705.908 638.374 C 766.773 626.515 827.621 614.576 888.475 602.659 C 910.097 598.423 931.734 594.257 953.316 589.821 C 954.836 589.508 963.526 589.752 953.032 584.734 M 617.651 681.494 C 626.975 675.136 635.923 668.114 645.709 662.574 C 660.437 654.234 662.809 642.428 658.302 627.395 C 650.515 626.095 643.629 628.316 636.697 629.558 C 600.37 636.074 567.488 650.64 536.117 670.033 C 493.019 696.677 448.404 720.721 401.385 741.118 C 416.737 744.05 431.785 746.008 446.882 746.576 C 469.131 747.412 469.147 746.989 478.291 727.296 C 488.587 728.478 492.722 737.516 499.026 743.795 C 503.102 747.857 506.355 754.929 514.101 750.541 C 521.044 746.608 529.763 744.083 529.889 733.686 C 529.953 728.556 529.614 723.394 530.081 718.304 C 530.619 712.453 527.006 704.806 533.322 701.211 C 540.361 697.201 546.165 703.281 550.783 707.676 C 560.459 716.88 568.958 715.998 579.092 708.07 C 590.784 698.923 603.547 691.145 617.651 681.494 M 469.19 778.373 C 461.442 772.098 449.933 771.394 435.103 776.288 C 442.591 794.812 445.874 796.039 461.051 785.803 C 463.577 784.099 465.855 782.024 469.19 778.373 Z" style="" id="object-0" fill="#000000"/><path opacity="1.000000" stroke="none" d="M 825.034 209.582 C 863.441 226.563 900.759 243.112 938.076 259.661 C 937.599 261.377 937.124 263.093 936.649 264.81 C 915.282 264.175 893.695 267.347 872.788 258.775 C 843.789 246.885 814.651 235.319 785.9 222.858 C 777.595 219.257 770.95 219.388 762.676 222.94 C 713.105 244.214 663.406 265.215 613.422 285.495 C 602.977 289.732 600.59 294.163 603.998 304.889 C 617.675 347.942 630.151 391.377 643.867 434.418 C 648.058 447.572 645.05 454.391 631.862 458.744 C 603.576 468.08 575.634 478.445 547.498 488.244 C 544.305 489.356 540.852 491.325 536.388 488.179 C 539.998 480.048 548.477 477.775 554.794 473.5 C 570.961 462.555 587.558 452.227 604.228 442.053 C 612.655 436.911 614.629 430.629 611.586 421.282 C 599.825 385.138 588.313 348.907 577.187 312.563 C 573.915 301.876 569.172 297.894 557.172 300.43 C 512.995 309.763 468.591 318.034 424.246 326.564 C 409.669 329.367 400.495 340.4 389.706 348.852 C 371.099 363.426 352.919 378.544 334.563 393.44 C 329.036 397.923 323.795 401.698 317.829 393.616 C 312.705 386.676 312.377 381.325 319.427 375.106 C 342.174 355.051 364.533 334.556 386.935 314.112 C 404.563 298.024 427.856 298.469 448.984 293.687 C 488.506 284.743 528.531 277.99 568.415 270.687 C 590.919 266.565 611.464 257.177 632.217 248.263 C 675.18 229.811 718.182 211.444 760.978 192.611 C 769.621 188.806 777.311 187.939 785.96 192.119 C 798.448 198.158 811.267 203.506 825.034 209.582 Z" style="" id="object-1" fill="#000000"/><path opacity="1.000000" stroke="none" d="M 812.393 358.761 C 810.48 370.754 803.162 375.758 794.089 380.961 C 762.914 398.837 733.516 400.996 700.489 382.803 C 681.609 372.4 666.762 363.433 663.529 340.644 C 661.741 328.043 657.059 315.838 653.515 303.503 C 650.842 294.194 653.528 288.023 662.491 283.491 C 688.629 270.276 714.606 256.729 740.357 242.779 C 749.499 237.827 757.526 237.768 766.368 243.105 C 784.406 253.995 802.593 264.654 820.952 274.991 C 830.056 280.119 832.573 286.65 829.538 296.729 C 823.471 316.871 818.231 337.264 812.393 358.761 M 738.568 275.278 C 723.562 283.031 708.505 290.684 693.579 298.589 C 688.131 301.473 682.919 304.354 684.883 312.622 C 690 334.179 693.415 356.582 721.17 361.32 C 725.076 361.986 728.607 364.676 732.408 366.187 C 745.358 371.332 777.31 364.041 783.971 352.167 C 793.257 335.622 798.712 316.427 799.058 298.029 C 799.28 286.226 780.933 285.77 771.799 278.9 C 769.768 277.372 767.129 276.593 765.252 274.924 C 757.129 267.699 748.949 267.71 738.568 275.278 Z" style="" id="object-2" fill="#000000"/><path opacity="1.000000" stroke="none" d="M 705.093 422.462 C 693.12 412.975 677.933 408.46 672.163 393.861 C 678.314 387.417 682.982 391.545 687.324 393.315 C 705.833 400.871 724.289 408.569 742.585 416.622 C 750.562 420.133 757.953 420.958 766.197 417.253 C 783.496 409.477 800.976 402.085 818.569 395.009 C 826.104 391.98 829.359 386.316 831.699 379.202 C 839.545 355.35 847.423 331.506 855.741 307.818 C 858.206 300.796 860.409 292.921 870.918 293.271 C 883.634 293.695 887.512 298.324 883.573 310.314 C 873.978 339.524 864.12 368.647 854.64 397.892 C 852.122 405.663 848.124 411.366 840.35 414.751 C 814.028 426.217 787.76 437.821 761.704 449.875 C 753.977 453.45 747.891 451.535 741.645 447.29 C 729.771 439.217 717.9 431.145 705.093 422.462 Z" style="" id="object-3" fill="#000000"/><path opacity="1.000000" stroke="none" d="M 133.915 442.382 C 135.616 416.868 145.399 398.454 169.065 388.294 C 180.696 383.301 189.559 372.956 201.771 368.654 C 213.391 384.95 212.64 390.749 198.561 402.109 C 180.164 416.951 162.049 432.142 143.637 446.965 C 139.132 450.594 133.348 455.106 133.915 442.382 Z" style="" id="object-4" fill="#000000"/><path opacity="1.000000" stroke="none" d="M 745.687 347.648 C 735.509 349.986 730.666 345.28 729.169 337.192 C 727.103 326.027 727.242 314.645 728.876 303.43 C 729.654 298.083 732.892 293.979 738.979 293.358 C 744.508 292.797 749.146 294.215 752.151 299.296 C 757.201 307.832 753.724 339.177 745.687 347.648 Z" style="" id="object-5" fill="#000000"/></svg>
